<?xml version="1.0" encoding="utf-8"?>
<!-- Generator: Adobe Illustrator 22.0.0, SVG Export Plug-In . SVG Version: 6.00 Build 0)  -->
<svg version="1.1" id="Layer_1" xmlns="http://www.w3.org/2000/svg" xmlns:xlink="http://www.w3.org/1999/xlink" x="0px" y="0px"
	 viewBox="0 0 500 500" style="enable-background:new 0 0 500 500;" xml:space="preserve">
<style type="text/css">
	.st0{fill:#C9C9C9;}
	.st1{fill:#A0A0A0;}
	.st2{fill:#71CCFF;}
	.st3{fill:#231F20;}
	.st4{fill:#F9F9F9;}
	.st5{fill:#7A7979;}
	.st6{fill:#4C4C4C;}
	.st7{fill:#F9B630;}
	.st8{fill:#D88A0E;}
	.st9{fill:#FFEDCC;}
	.st10{fill:#C0E7F9;}
	.st11{fill:#08B26C;}
	.st12{fill:#15A9EA;}
	.st13{fill:none;stroke:#C9C9C9;stroke-width:10;stroke-linecap:round;stroke-linejoin:round;stroke-miterlimit:10;}
	.st14{fill:none;stroke:#231F20;stroke-width:10;stroke-linecap:round;stroke-linejoin:round;stroke-miterlimit:10;}
	.st15{fill:#FFFFFF;}
	.st16{fill:#35EF9F;}
	.st17{fill:#22A6E0;}
	.st18{fill:#FC3A6D;}
	.st19{fill:#FFA9C8;}
	.st20{fill:#038E52;}
	.st21{fill:#E2074B;}
</style>
<g>
	<g>
		<path class="st2" d="M455,356c0,11-9,20-20,20H65c-11,0-20-9-20-20V65c0-11,9-20,20-20h370c11,0,20,9,20,20V356z"/>
	</g>
</g>
<g>
	<g>
		<path class="st4" d="M65,113.3c-2.8,0-5-2.2-5-5v-12c0-2.8,2.2-5,5-5s5,2.2,5,5v12C70,111.1,67.8,113.3,65,113.3z"/>
	</g>
</g>
<g>
	<g>
		<path class="st4" d="M65,312.2c-2.8,0-5-2.2-5-5V133.3c0-2.8,2.2-5,5-5s5,2.2,5,5v173.8C70,309.9,67.8,312.2,65,312.2z"/>
	</g>
</g>
<g>
	<g>
		<path class="st5" d="M455,5H45C22.9,5,5,22.9,5,45v410c0,22.1,17.9,40,40,40h410c22.1,0,40-17.9,40-40V45C495,22.9,477.1,5,455,5z
			 M455,356c0,11-9,20-20,20H65c-11,0-20-9-20-20V65c0-11,9-20,20-20h370c11,0,20,9,20,20V356z"/>
	</g>
</g>
<g>
	<g>
		<path class="st3" d="M455,500H45c-24.8,0-45-20.2-45-45V265.3c0-2.8,2.2-5,5-5s5,2.2,5,5V455c0,19.3,15.7,35,35,35h410
			c19.3,0,35-15.7,35-35V45c0-19.3-15.7-35-35-35H45c-19.3,0-35,15.7-35,35v26.5c0,2.8-2.2,5-5,5s-5-2.2-5-5V45C0,20.2,20.2,0,45,0
			h410c24.8,0,45,20.2,45,45v410C500,479.8,479.8,500,455,500z"/>
	</g>
</g>
<g>
	<g>
		<path class="st3" d="M5,241.7c-2.8,0-5-2.2-5-5V135c0-2.8,2.2-5,5-5s5,2.2,5,5v101.7C10,239.5,7.8,241.7,5,241.7z"/>
	</g>
</g>
<g>
	<g>
		<path class="st3" d="M5,116.5c-2.8,0-5-2.2-5-5v-10c0-2.8,2.2-5,5-5s5,2.2,5,5v10C10,114.3,7.8,116.5,5,116.5z"/>
	</g>
</g>
<g>
	<g>
		<circle class="st7" cx="250" cy="435.3" r="27.1"/>
	</g>
</g>
<g>
	<g>
		<path class="st3" d="M250,467.3c-17.7,0-32.1-14.4-32.1-32.1s14.4-32.1,32.1-32.1s32.1,14.4,32.1,32.1S267.7,467.3,250,467.3z
			 M250,413.2c-12.2,0-22.1,9.9-22.1,22.1s9.9,22.1,22.1,22.1s22.1-9.9,22.1-22.1S262.2,413.2,250,413.2z"/>
	</g>
</g>
<g>
	<g>
		<path class="st0" d="M106.2,455.3h58.6c11.1,0,20.1-9,20.1-20.1v0c0-11.1-9-20.1-20.1-20.1h-58.6c-11.1,0-20.1,9-20.1,20.1v0
			C86.1,446.4,95.1,455.3,106.2,455.3z"/>
	</g>
</g>
<g>
	<g>
		<path class="st0" d="M335.2,455.3h58.6c11.1,0,20.1-9,20.1-20.1v0c0-11.1-9-20.1-20.1-20.1h-58.6c-11.1,0-20.1,9-20.1,20.1v0
			C315.1,446.4,324.1,455.3,335.2,455.3z"/>
	</g>
</g>
<g>
	<g>
		<path class="st3" d="M164.8,460.3h-58.6c-13.8,0-25.1-11.2-25.1-25.1s11.2-25.1,25.1-25.1h58.6c13.8,0,25.1,11.2,25.1,25.1
			S178.6,460.3,164.8,460.3z M106.2,420.2c-8.3,0-15.1,6.8-15.1,15.1s6.8,15.1,15.1,15.1h58.6c8.3,0,15.1-6.8,15.1-15.1
			s-6.8-15.1-15.1-15.1H106.2z"/>
	</g>
</g>
<g>
	<g>
		<path class="st3" d="M393.8,460.3h-58.6c-13.8,0-25.1-11.2-25.1-25.1s11.2-25.1,25.1-25.1h58.6c13.8,0,25.1,11.2,25.1,25.1
			S407.6,460.3,393.8,460.3z M335.2,420.2c-8.3,0-15.1,6.8-15.1,15.1s6.8,15.1,15.1,15.1h58.6c8.3,0,15.1-6.8,15.1-15.1
			s-6.8-15.1-15.1-15.1H335.2z"/>
	</g>
</g>
<g>
	<g>
		<path class="st0" d="M25,91.9c-2.8,0-5-2.2-5-5V75.4c0-2.8,2.2-5,5-5s5,2.2,5,5v11.5C30,89.7,27.8,91.9,25,91.9z"/>
	</g>
</g>
<g>
	<g>
		<path class="st0" d="M187.9,480H50c-16.5,0-30-13.5-30-30V123.9c0-2.8,2.2-5,5-5s5,2.2,5,5V450c0,11,9,20,20,20h137.9
			c2.8,0,5,2.2,5,5S190.6,480,187.9,480z"/>
	</g>
</g>
<g>
	<g>
		<path class="st3" d="M435,381H65c-13.8,0-25-11.2-25-25V65c0-13.8,11.2-25,25-25h370c13.8,0,25,11.2,25,25v291
			C460,369.8,448.8,381,435,381z M65,50c-8.3,0-15,6.7-15,15v291c0,8.3,6.7,15,15,15h370c8.3,0,15-6.7,15-15V65c0-8.3-6.7-15-15-15
			H65z"/>
	</g>
</g>
<g>
	<g>
		<circle class="st11" cx="250" cy="195.3" r="111.8"/>
	</g>
</g>
<g>
	<g>
		<path class="st2" d="M359.2,195.3h-48.8c0,0-1.2,36.8-9.4,59.9c0,0,23.4,12.8,27.4,19.8c0,0,31.3-26.7,33.4-77.5L359.2,195.3z"/>
	</g>
</g>
<g>
	<g>
		<path class="st2" d="M189.6,195.3H250v47.5c0,0-22.8-2-51,12.3C199,255.2,188.2,229.2,189.6,195.3z"/>
	</g>
</g>
<g>
	<g>
		<path class="st2" d="M250,242.9c18.4,0,35.7,4.4,51,12.3c-10.7,31.2-29.6,52-51,52V242.9z"/>
	</g>
</g>
<g>
	<g>
		<path class="st3" d="M250,312.2c-64.4,0-116.8-52.4-116.8-116.8S185.6,78.5,250,78.5s116.8,52.4,116.8,116.8
			S314.4,312.2,250,312.2z M250,88.5c-58.9,0-106.8,47.9-106.8,106.8S191.1,302.2,250,302.2s106.8-47.9,106.8-106.8
			S308.9,88.5,250,88.5z"/>
	</g>
</g>
<g>
	<g>
		<path class="st16" d="M175.4,150.8c-1,0-1.9-0.3-2.8-0.8c-2.3-1.5-2.9-4.6-1.4-6.9c0.7-1.1,1.5-2.2,2.3-3.3c1.6-2.2,4.8-2.7,7-1.1
			c2.2,1.6,2.7,4.8,1.1,7c-0.7,1-1.4,1.9-2.1,2.9C178.6,150,177,150.8,175.4,150.8z"/>
	</g>
</g>
<g>
	<g>
		<path class="st16" d="M177.3,252.7c-1.6,0-3.1-0.7-4.1-2.1c-11.7-16.2-17.9-35.3-17.9-55.3c0-12.9,2.6-25.5,7.7-37.3
			c1.1-2.5,4-3.7,6.6-2.6c2.5,1.1,3.7,4,2.6,6.6c-4.5,10.6-6.8,21.8-6.8,33.3c0,17.9,5.5,34.9,16,49.4c1.6,2.2,1.1,5.4-1.1,7
			C179.4,252.4,178.3,252.7,177.3,252.7z"/>
	</g>
</g>
<g>
	<g>
		<path class="st16" d="M324.6,150.8c-1.6,0-3.2-0.8-4.2-2.2c-0.7-1-1.4-2-2.1-2.9c-1.6-2.2-1.1-5.4,1.1-7c2.2-1.6,5.4-1.1,7,1.1
			c0.8,1.1,1.6,2.2,2.3,3.3c1.5,2.3,0.9,5.4-1.4,6.9C326.5,150.5,325.5,150.8,324.6,150.8z"/>
	</g>
</g>
<g>
	<g>
		<path class="st16" d="M322.7,252.7c-1,0-2-0.3-2.9-0.9c-2.2-1.6-2.7-4.7-1.1-7c10.4-14.5,16-31.5,16-49.4
			c0-11.6-2.3-22.8-6.8-33.3c-1.1-2.5,0.1-5.5,2.6-6.6c2.5-1.1,5.5,0.1,6.6,2.6c5.1,11.8,7.7,24.4,7.7,37.3c0,20-6.2,39.1-17.9,55.3
			C325.7,251.9,324.2,252.7,322.7,252.7z"/>
	</g>
</g>
<g>
	<g>
		<path class="st10" d="M322.7,252.7c-1,0-2-0.3-2.9-0.9c-2.2-1.6-2.7-4.7-1.1-7c10.4-14.5,16-31.5,16-49.4c0-2.8,2.2-5,5-5
			s5,2.2,5,5c0,20-6.2,39.1-17.9,55.3C325.7,251.9,324.2,252.7,322.7,252.7z"/>
	</g>
</g>
<g>
	<g>
		<path class="st3" d="M250,312.2c-30.9,0-60-11.9-82-33.6c-1-0.9-1.5-2.2-1.5-3.6c0-1.3,0.5-2.6,1.5-3.6c22-21.7,51.1-33.6,82-33.6
			s60,11.9,82,33.6c1,0.9,1.5,2.2,1.5,3.6c0,1.3-0.5,2.6-1.5,3.6C310,300.2,280.9,312.2,250,312.2z M178.9,275
			c19.6,17.5,44.7,27.1,71.1,27.1s51.5-9.6,71.1-27.1c-19.6-17.5-44.7-27.1-71.1-27.1S198.5,257.5,178.9,275z"/>
	</g>
</g>
<g>
	<g>
		<path class="st2" d="M239.9,83.5c0,0-25.2,6-40.9,52c0,0-25.5-12.6-27.4-19.8C171.6,115.6,194.1,89.2,239.9,83.5z"/>
	</g>
</g>
<g>
	<g>
		<path class="st2" d="M250,147.8c18.4,0,35.7-4.4,51-12.3c-10.7-31.2-29.6-52-51-52V147.8z"/>
	</g>
</g>
<g>
	<g>
		<path class="st3" d="M250,152.8c-30.9,0-60-11.9-82-33.6c-1-0.9-1.5-2.2-1.5-3.6c0-1.3,0.5-2.6,1.5-3.6c22-21.7,51.1-33.6,82-33.6
			s60,11.9,82,33.6c1,0.9,1.5,2.2,1.5,3.6c0,1.3-0.5,2.6-1.5,3.6C310,140.9,280.9,152.8,250,152.8z M178.9,115.6
			c19.6,17.5,44.7,27.1,71.1,27.1s51.5-9.6,71.1-27.1c-19.6-17.5-44.7-27.1-71.1-27.1S198.5,98.1,178.9,115.6z"/>
	</g>
</g>
<g>
	<g>
		<path class="st3" d="M250,312.2c-18.1,0-34.8-12.6-47.1-35.4c-11.8-21.8-18.3-50.8-18.3-81.5s6.5-59.6,18.3-81.5
			c12.3-22.8,29.1-35.4,47.1-35.4s34.8,12.6,47.1,35.4c11.8,21.8,18.3,50.8,18.3,81.5s-6.5,59.6-18.3,81.5
			C284.8,299.6,268.1,312.2,250,312.2z M250,88.5c-14.2,0-27.8,10.7-38.3,30.1c-11,20.4-17.1,47.6-17.1,76.7s6.1,56.3,17.1,76.7
			c10.5,19.4,24.1,30.1,38.3,30.1s27.8-10.7,38.3-30.1c11-20.4,17.1-47.6,17.1-76.7s-6.1-56.3-17.1-76.7
			C277.8,99.2,264.2,88.5,250,88.5z"/>
	</g>
</g>
<g>
	<g>
		<path class="st3" d="M250,312.2c-2.8,0-5-2.2-5-5V83.5c0-2.8,2.2-5,5-5s5,2.2,5,5v223.7C255,309.9,252.8,312.2,250,312.2z"/>
	</g>
</g>
<g>
	<g>
		<path class="st3" d="M361.8,200.3H138.2c-2.8,0-5-2.2-5-5s2.2-5,5-5h223.7c2.8,0,5,2.2,5,5S364.6,200.3,361.8,200.3z"/>
	</g>
</g>
<g>
	<g>
		<path class="st3" d="M338.5,312.2h-177c-2.8,0-5-2.2-5-5s2.2-5,5-5h177c2.8,0,5,2.2,5,5S341.3,312.2,338.5,312.2z"/>
	</g>
</g>
<g>
	<g>
		<path class="st3" d="M139.9,312.2h-6.1c-2.8,0-5-2.2-5-5s2.2-5,5-5h6.1c2.8,0,5,2.2,5,5S142.6,312.2,139.9,312.2z"/>
	</g>
</g>
<g>
	<g>
		<path class="st3" d="M366.2,312.2h-6.1c-2.8,0-5-2.2-5-5s2.2-5,5-5h6.1c2.8,0,5,2.2,5,5S369,312.2,366.2,312.2z"/>
	</g>
</g>
<g>
	<g>
		<path class="st3" d="M204.4,342h-44c-2.8,0-5-2.2-5-5s2.2-5,5-5h44c2.8,0,5,2.2,5,5S207.2,342,204.4,342z"/>
	</g>
</g>
<g>
	<g>
		<path class="st3" d="M272,342h-44c-2.8,0-5-2.2-5-5s2.2-5,5-5h44c2.8,0,5,2.2,5,5S274.8,342,272,342z"/>
	</g>
</g>
<g>
	<g>
		<path class="st3" d="M339.6,342h-44c-2.8,0-5-2.2-5-5s2.2-5,5-5h44c2.8,0,5,2.2,5,5S342.3,342,339.6,342z"/>
	</g>
</g>
</svg>
